<?xml version="1.0" encoding="utf-8"?>
<!DOCTYPE svg PUBLIC "-//W3C//DTD SVG 1.1//EN" "http://www.w3.org/Graphics/SVG/1.1/DTD/svg11.dtd">
<svg fill="#4e90eb" version="1.1" id="_x32_" xmlns="http://www.w3.org/2000/svg" xmlns:xlink="http://www.w3.org/1999/xlink"
	width="800px" height="800px" viewBox="0 0 512 512" xml:space="preserve">
<g>
	<path d="M376.531,197.984c-0.031-19.719-3.688-41.172-9.844-62.703c-9.281-32.25-24.156-64.484-42.406-89.734
		c-9.188-12.609-19.188-23.516-30.375-31.734c-5.625-4.078-11.531-7.5-17.875-9.938C269.719,1.438,262.969,0,256,0
		c-9.297,0-18.172,2.563-26.234,6.625c-14.141,7.188-26.328,18.781-37.391,32.75c-16.531,21.031-30.438,47.875-40.563,75.813
		c-10.063,27.984-16.297,56.938-16.344,82.797C135.469,263.938,135.5,512,135.5,512h241.031
		C376.531,512,376.516,259.875,376.531,197.984z M167.688,479.781c0-0.766,0-1.469,0-2.313c0-11.125,0-28.313,0-53.469h176.625
		c0,27.063,0,44.75,0,55.781H167.688z M344.313,391.797H167.688c0-14.266,0-36.734,0-62.328c0-43.625,0-96.125,0-131.484
		c-0.016-15.641,3.063-34.609,8.594-53.813c8.234-28.859,22.031-58.422,37.516-79.703c7.703-10.656,15.828-19.203,23.297-24.625
		c3.734-2.734,7.281-4.688,10.438-5.906c3.188-1.219,5.953-1.719,8.469-1.719c3.344,0,7.188,0.906,11.75,3.188
		c7.938,3.938,17.469,12.313,26.563,23.906c13.719,17.375,26.516,41.656,35.563,66.813c9.125,25.141,14.469,51.313,14.438,71.859
		C344.313,254.094,344.313,353.156,344.313,391.797z"/>
</g>
</svg>