<?xml version="1.0" encoding="UTF-8" standalone="no"?>
<!-- Uploaded to: SVG Repo, www.svgrepo.com, Generator: SVG Repo Mixer Tools -->

<svg
   fill="none"
   width="800px"
   height="800px"
   viewBox="0 0 24 24"
   version="1.1"
   id="svg2"
   sodipodi:docname="tbs.svg"
   inkscape:version="1.3 (0e150ed6c4, 2023-07-21)"
   xmlns:inkscape="http://www.inkscape.org/namespaces/inkscape"
   xmlns:sodipodi="http://sodipodi.sourceforge.net/DTD/sodipodi-0.dtd"
   xmlns="http://www.w3.org/2000/svg"
   xmlns:svg="http://www.w3.org/2000/svg">
  <defs
     id="defs2" />
  <sodipodi:namedview
     id="namedview2"
     pagecolor="#505050"
     bordercolor="#ffffff"
     borderopacity="1"
     inkscape:showpageshadow="0"
     inkscape:pageopacity="0"
     inkscape:pagecheckerboard="1"
     inkscape:deskcolor="#505050"
     inkscape:zoom="2.9125"
     inkscape:cx="368.41202"
     inkscape:cy="605.83691"
     inkscape:window-width="2560"
     inkscape:window-height="1369"
     inkscape:window-x="2552"
     inkscape:window-y="-8"
     inkscape:window-maximized="1"
     inkscape:current-layer="svg2" />
  <path
     fill-rule="evenodd"
     clip-rule="evenodd"
     d="M 14.233939,6.6736944 V 17.717723 c -0.0035,0.569488 0.219344,1.117079 0.619426,1.522347 0.400273,0.405268 0.944984,0.634792 1.514472,0.638441 h 2.133898 c 0.569488,-0.0036 1.11439,-0.233173 1.514472,-0.638441 0.400274,-0.405268 0.623076,-0.952859 0.619426,-1.522347 V 6.6736944 C 20.639283,6.1041875 20.416481,5.5565766 20.016207,5.1513472 19.616125,4.7461178 19.071223,4.5164596 18.501735,4.5129063 h -2.133898 c -0.569488,0.00355 -1.114199,0.2332115 -1.514472,0.6384409 -0.400082,0.4052294 -0.622884,0.9528403 -0.619426,1.5223472 z"
     stroke="#4e90eb"
     stroke-width="2.88105"
     stroke-linecap="round"
     stroke-linejoin="round"
     id="path2" />
  <path
     fill-rule="evenodd"
     clip-rule="evenodd"
     d="m 3.5490639,6.694532 v 11.044027 c -0.0035,0.569488 0.219344,1.117079 0.619426,1.522347 0.400273,0.405268 0.944984,0.634792 1.514472,0.638441 h 2.133898 c 0.569488,-0.0036 1.11439,-0.233173 1.514472,-0.638441 0.4002743,-0.405268 0.6230763,-0.952859 0.6194263,-1.522347 V 6.694532 C 9.9544082,6.1250251 9.7316062,5.5774142 9.3313319,5.1721848 8.9312499,4.7669554 8.3863479,4.5372972 7.8168599,4.5337439 h -2.133898 c -0.569488,0.00355 -1.114199,0.2332115 -1.514472,0.6384409 -0.400082,0.4052294 -0.622884,0.9528403 -0.619426,1.5223472 z"
     stroke="#4e90eb"
     stroke-width="2.88105"
     stroke-linecap="round"
     stroke-linejoin="round"
     id="path2-2" />
</svg>
